<svg xmlns="http://www.w3.org/2000/svg" width="512" height="512" viewBox="0 0 256 256" role="img" aria-label="FurnitureMatch logo">
  <defs>
    <linearGradient id="fmGradient" x1="0" y1="0" x2="1" y2="1">
      <stop offset="0%" stop-color="#FF7A00"/>
      <stop offset="55%" stop-color="#FF4F7A"/>
      <stop offset="100%" stop-color="#6A63FF"/>
    </linearGradient>
    <linearGradient id="fmGlow" x1="0" y1="0" x2="0" y2="1">
      <stop offset="0%" stop-color="#FFFFFF" stop-opacity=".22"/>
      <stop offset="100%" stop-color="#FFFFFF" stop-opacity="0"/>
    </linearGradient>
  </defs>

  <!-- Soft squircle backdrop -->
  <path fill="url(#fmGradient)" d="M46 18c-15 5-27 17-33 32-5 12-5 26-5 48v60c0 22 0 36 5 48 6 15 18 27 33 32 12 5 26 5 48 5h60c22 0 36 0 48-5 15-5 27-17 33-32 5-12 5-26 5-48V98c0-22 0-36-5-48-6-15-18-27-33-32-12-5-26-5-48-5H94c-22 0-36 0-48 5z"/>
  <path fill="url(#fmGlow)" d="M46 18c-15 5-27 17-33 32-1 2-2 5-3 8 20 13 44 20 73 20 41 0 77-14 105-40-9-5-20-7-34-7H94c-22 0-36 0-48 5z"/>

  <!-- Minimal couch-heart glyph -->
  <g transform="translate(28 78)">
    <!-- seat base -->
    <rect x="20" y="62" width="160" height="40" rx="12" fill="#ffffff"/>
    <!-- backrest with gentle heart dip: two circles + bridge -->
    <path fill="#ffffff" d="M46 60c-16 0-28-12-28-28s12-28 28-28c9 0 17 4 22 11 5-7 13-11 22-11 16 0 28 12 28 28 0 16-12 28-28 28H46z"/>
    <!-- arms -->
    <rect x="20" y="52" width="18" height="28" rx="9" fill="#ffffff"/>
    <rect x="162" y="52" width="18" height="28" rx="9" fill="#ffffff"/>
    <!-- legs -->
    <rect x="38" y="102" width="16" height="10" rx="3" fill="#ffffff"/>
    <rect x="202" y="102" width="16" height="10" rx="3" fill="#ffffff" transform="translate(-32,0)"/>
  </g>
</svg>

